<svg width="22" height="42" viewBox="0 0 22 42" fill="none" xmlns="http://www.w3.org/2000/svg">
<path d="M2.28122 41.656L6.50422 37.228H16.6312L20.6082 41.656H2.28122ZM1.05122 21.525L5.47922 25.789V35.834L1.05122 39.852V21.525ZM21.9202 39.852L17.4922 35.629V25.543L21.9202 21.525V39.852ZM5.80722 23.001C4.85056 22.2357 3.88022 21.484 2.89622 20.746L5.80722 18.573H17.0002L19.8702 20.746L17.0002 23.001H5.80722ZM2.24022 0H20.5672L16.5082 4.428H6.46322L2.24022 0ZM0.928223 20.09V1.763L5.35622 5.74V15.908L0.928223 20.09ZM21.7972 1.763V20.09L17.3692 16.113V5.986L21.7972 1.763Z" fill="#F40007"/>
</svg>
